<svg width="1410" height="480" viewBox="0 0 1410 480" fill="none" xmlns="http://www.w3.org/2000/svg">
<path d="M0.5 0L0.5 0.5M0.5 0.5L0.499999 30M0.5 0.5H0M0.5 0.5H60.5M60.5 0V0.5M60.5 0.5V30M60.5 0.5H120.5M120.5 0V0.5M120.5 0.5V30M120.5 0.5H180.5M180.5 0V0.5M180.5 0.5V30M180.5 0.5H240.5M480.5 0V0.5M480.5 0.5V30M480.5 0.5H420.5M480.5 0.5H540.5M540.5 0V0.5M540.5 0.5V30M540.5 0.5H600.5M600.5 0V0.5M600.5 0.5V30M600.5 0.5H660.5M660.5 0V0.5M660.5 0.5V30M660.5 0.5H720.5M240.5 0V0.5M240.5 0.5V30M240.5 0.5H300.5M300.5 0V0.5M300.5 0.5V30M300.5 0.5H360.5M360.5 0V0.5M360.5 0.5V30M360.5 0.5H420.5M420.5 0V0.5M420.5 0.5V30M29.5 30V30.5M29.5 30.5L29.5 60M29.5 30.5H0M29.5 30.5H89.5M89.5 30V30.5M89.5 30.5V60M89.5 30.5H149.5M149.5 30V30.5M149.5 30.5V60M149.5 30.5H209.5M209.5 30V30.5M209.5 30.5V60M209.5 30.5H269.5M509.5 30V30.5M509.5 30.5V60M509.5 30.5H449.5M509.5 30.5H569.5M569.5 30V30.5M569.5 30.5V60M569.5 30.5H629.5M629.5 30V30.5M629.5 30.5V60M629.5 30.5H689.5M689.5 30V30.5M689.5 30.5V60M689.5 30.5H749.5M269.5 30V30.5M269.5 30.5V60M269.5 30.5H329.5M329.5 30V30.5M329.5 30.5V60M329.5 30.5H389.5M389.5 30V30.5M389.5 30.5V60M389.5 30.5H449.5M449.5 30V30.5M449.5 30.5V60M720.5 0V0.5M720.5 0.5V30M720.5 0.5H780.5M780.5 0V0.5M780.5 0.5V30M780.5 0.5H840.5M840.5 0V0.5M840.5 0.5V30M840.5 0.5H900.5M900.5 0V0.5M900.5 0.5V30M900.5 0.5H960.5M1200.5 0V0.5M1200.5 0.5V30M1200.5 0.5H1140.5M1200.5 0.5H1260.5M1260.5 0V0.5M1260.5 0.5V30M1260.5 0.5H1320.5M1320.5 0V0.5M1320.5 0.5V30M1320.5 0.5H1380.5M1380.5 0V0.5M1380.5 0.5V30M1380.5 0.5H1410M960.5 0V0.5M960.5 0.5V30M960.5 0.5H1020.5M1020.5 0V0.5M1020.5 0.5V30M1020.5 0.5H1080.5M1080.5 0V0.5M1080.5 0.5V30M1080.5 0.5H1140.5M1140.5 0V0.5M1140.5 0.5V30M749.5 30V30.5M749.5 30.5V60M749.5 30.5H809.5M809.5 30V30.5M809.5 30.5V60M809.5 30.5H869.5M869.5 30V30.5M869.5 30.5V60M869.5 30.5H929.5M929.5 30V30.5M929.5 30.5V60M929.5 30.5H989.5M1229.5 30V30.5M1229.5 30.5V60M1229.5 30.5H1169.5M1229.5 30.5H1289.5M1289.5 30V30.5M1289.5 30.5V60M1289.5 30.5H1349.5M1349.5 30V30.5M1349.5 30.5V60M1349.5 30.5H1409.5M1409.5 30.5V60M1409.5 30.5V1M989.5 30V30.5M989.5 30.5V60M989.5 30.5H1049.5M1049.5 30V30.5M1049.5 30.5V60M1049.5 30.5H1109.5M1109.5 30V30.5M1109.5 30.5V60M1109.5 30.5H1169.5M1169.5 30V30.5M1169.5 30.5V60M0.5 31L0.5 60.5M0.5 60.5L0.499999 90M0.5 60.5H0M0.5 60.5H60.5M60.5 60V60.5M60.5 60.5V90M60.5 60.5H120.5M120.5 60V60.5M120.5 60.5V90M120.5 60.5H180.5M180.5 60V60.5M180.5 60.5V90M180.5 60.5H240.5M480.5 60V60.5M480.5 60.5V90M480.5 60.5H420.5M480.5 60.5H540.5M540.5 60V60.5M540.5 60.5V90M540.5 60.5H600.5M600.5 60V60.5M600.5 60.5V90M600.5 60.5H660.5M660.5 60V60.5M660.5 60.5V90M660.5 60.5H720.5M240.5 60V60.5M240.5 60.5V90M240.5 60.5H300.5M300.5 60V60.5M300.5 60.5V90M300.5 60.5H360.5M360.5 60V60.5M360.5 60.5V90M360.5 60.5H420.5M420.5 60V60.5M420.5 60.5V90M29.5 90V90.5M29.5 90.5L29.5 120M29.5 90.5H0M29.5 90.5H89.5M89.5 90V90.5M89.5 90.5V120M89.5 90.5H149.5M149.5 90V90.5M149.5 90.5V120M149.5 90.5H209.5M209.5 90V90.5M209.5 90.5V120M209.5 90.5H269.5M509.5 90V90.5M509.5 90.5V120M509.5 90.5H449.5M509.5 90.5H569.5M569.5 90V90.5M569.5 90.5V120M569.5 90.5H629.5M629.5 90V90.5M629.5 90.5V120M629.5 90.5H689.5M689.5 90V90.5M689.5 90.5V120M689.5 90.5H749.5M269.5 90V90.5M269.5 90.5V120M269.5 90.5H329.5M329.5 90V90.5M329.5 90.5V120M329.5 90.5H389.5M389.5 90V90.5M389.5 90.5V120M389.5 90.5H449.5M449.5 90V90.5M449.5 90.5V120M720.5 60V60.5M720.5 60.5V90M720.5 60.5H780.5M780.5 60V60.5M780.5 60.5V90M780.5 60.5H840.5M840.5 60V60.5M840.5 60.5V90M840.5 60.5H900.5M900.5 60V60.5M900.5 60.5V90M900.5 60.5H960.5M1200.5 60V60.5M1200.5 60.5V90M1200.5 60.5H1140.5M1200.5 60.5H1260.5M1260.5 60V60.5M1260.5 60.5V90M1260.5 60.5H1320.5M1320.5 60V60.5M1320.5 60.5V90M1320.5 60.5H1380.5M1380.5 60V60.5M1380.5 60.5V90M1380.5 60.5H1410M960.5 60V60.5M960.5 60.5V90M960.5 60.5H1020.5M1020.5 60V60.5M1020.5 60.5V90M1020.5 60.5H1080.5M1080.5 60V60.5M1080.5 60.5V90M1080.5 60.5H1140.5M1140.5 60V60.5M1140.5 60.5V90M749.5 90V90.5M749.5 90.5V120M749.5 90.5H809.5M809.5 90V90.5M809.5 90.5V120M809.5 90.5H869.5M869.5 90V90.5M869.5 90.5V120M869.5 90.5H929.5M929.5 90V90.5M929.5 90.5V120M929.5 90.5H989.5M1229.5 90V90.5M1229.5 90.5V120M1229.5 90.5H1169.5M1229.5 90.5H1289.5M1289.5 90V90.5M1289.5 90.5V120M1289.5 90.5H1349.5M1349.5 90V90.5M1349.5 90.5V120M1349.5 90.5H1409.5M1409.5 90.5V120M1409.5 90.5V61M989.5 90V90.5M989.5 90.5V120M989.5 90.5H1049.5M1049.5 90V90.5M1049.5 90.5V120M1049.5 90.5H1109.5M1109.5 90V90.5M1109.5 90.5V120M1109.5 90.5H1169.5M1169.5 90V90.5M1169.5 90.5V120M0.5 91L0.5 120.5M0.5 120.5L0.499999 150M0.5 120.5H0M0.5 120.5H60.5M60.5 120V120.5M60.5 120.5V150M60.5 120.5H120.5M120.5 120V120.5M120.5 120.5V150M120.5 120.5H180.5M180.5 120V120.5M180.5 120.5V150M180.5 120.5H240.5M480.5 120V120.5M480.5 120.5V150M480.5 120.5H420.5M480.5 120.5H540.5M540.5 120V120.5M540.5 120.5V150M540.5 120.5H600.5M600.5 120V120.5M600.5 120.5V150M600.5 120.5H660.5M660.5 120V120.5M660.5 120.5V150M660.5 120.5H720.5M240.5 120V120.5M240.5 120.5V150M240.5 120.5H300.5M300.5 120V120.5M300.5 120.5V150M300.5 120.5H360.5M360.5 120V120.5M360.5 120.5V150M360.5 120.5H420.5M420.5 120V120.5M420.5 120.5V150M29.5 150V150.5M29.5 150.5L29.5 180M29.5 150.5H0M29.5 150.5H89.5M89.5 150V150.5M89.5 150.5V180M89.5 150.5H149.5M149.5 150V150.5M149.5 150.5V180M149.5 150.5H209.5M209.5 150V150.5M209.5 150.5V180M209.5 150.5H269.5M509.5 150V150.5M509.5 150.5V180M509.5 150.5H449.5M509.5 150.5H569.5M569.5 150V150.5M569.5 150.5V180M569.5 150.5H629.5M629.5 150V150.5M629.5 150.5V180M629.5 150.5H689.5M689.5 150V150.5M689.5 150.5V180M689.5 150.5H749.5M269.5 150V150.5M269.5 150.5V180M269.5 150.5H329.5M329.5 150V150.5M329.5 150.5V180M329.5 150.5H389.5M389.5 150V150.5M389.5 150.5V180M389.5 150.5H449.5M449.5 150V150.5M449.5 150.5V180M720.5 120V120.5M720.5 120.5V150M720.5 120.5H780.5M780.5 120V120.5M780.5 120.5V150M780.5 120.5H840.5M840.5 120V120.5M840.5 120.5V150M840.5 120.5H900.5M900.5 120V120.5M900.5 120.5V150M900.5 120.5H960.5M1200.5 120V120.5M1200.5 120.5V150M1200.5 120.5H1140.5M1200.5 120.5H1260.5M1260.5 120V120.5M1260.5 120.5V150M1260.5 120.5H1320.5M1320.5 120V120.5M1320.5 120.5V150M1320.5 120.5H1380.5M1380.5 120V120.5M1380.5 120.5V150M1380.5 120.5H1410M960.5 120V120.5M960.5 120.5V150M960.5 120.5H1020.5M1020.5 120V120.5M1020.5 120.5V150M1020.5 120.5H1080.5M1080.5 120V120.5M1080.5 120.5V150M1080.5 120.5H1140.5M1140.5 120V120.5M1140.5 120.5V150M749.5 150V150.5M749.5 150.5V180M749.5 150.5H809.5M809.5 150V150.5M809.5 150.5V180M809.5 150.5H869.5M869.5 150V150.5M869.5 150.5V180M869.5 150.5H929.5M929.5 150V150.5M929.5 150.5V180M929.5 150.5H989.5M1229.5 150V150.5M1229.5 150.5V180M1229.5 150.5H1169.5M1229.5 150.5H1289.5M1289.5 150V150.5M1289.5 150.5V180M1289.5 150.5H1349.5M1349.5 150V150.5M1349.5 150.5V180M1349.5 150.5H1409.5M1409.5 150.5V180M1409.5 150.5V121M989.5 150V150.5M989.5 150.5V180M989.5 150.5H1049.5M1049.5 150V150.5M1049.5 150.5V180M1049.5 150.5H1109.5M1109.5 150V150.5M1109.5 150.5V180M1109.5 150.5H1169.5M1169.5 150V150.5M1169.5 150.5V180M0.5 151L0.5 180.5M0.5 180.5L0.499999 210M0.5 180.5H0M0.5 180.5H60.5M60.5 180V180.5M60.5 180.5V210M60.5 180.5H120.5M120.5 180V180.5M120.5 180.5V210M120.5 180.5H180.5M180.5 180V180.5M180.5 180.5V210M180.5 180.5H240.5M480.5 180V180.5M480.5 180.5V210M480.5 180.5H420.5M480.5 180.5H540.5M540.5 180V180.5M540.5 180.5V210M540.5 180.5H600.5M600.5 180V180.5M600.5 180.5V210M600.5 180.5H660.5M660.5 180V180.5M660.5 180.5V210M660.5 180.5H720.5M240.5 180V180.5M240.5 180.5V210M240.5 180.5H300.5M300.5 180V180.5M300.5 180.5V210M300.5 180.5H360.5M360.5 180V180.5M360.5 180.5V210M360.5 180.5H420.5M420.5 180V180.5M420.5 180.5V210M29.5 210V210.5M29.5 210.5L29.5 240M29.5 210.5H0M29.5 210.5H89.5M89.5 210V210.5M89.5 210.5V240M89.5 210.5H149.5M149.5 210V210.5M149.5 210.5V240M149.5 210.5H209.5M209.5 210V210.5M209.5 210.5V240M209.5 210.5H269.5M509.5 210V210.5M509.5 210.5V240M509.5 210.5H449.5M509.5 210.5H569.5M569.5 210V210.5M569.5 210.5V240M569.5 210.5H629.5M629.5 210V210.5M629.5 210.5V240M629.5 210.5H689.5M689.5 210V210.5M689.5 210.5V240M689.5 210.5H749.5M269.5 210V210.5M269.5 210.5V240M269.5 210.5H329.5M329.5 210V210.5M329.5 210.5V240M329.5 210.5H389.5M389.5 210V210.5M389.5 210.5V240M389.5 210.5H449.5M449.5 210V210.5M449.5 210.5V240M720.5 180V180.5M720.5 180.5V210M720.5 180.5H780.5M780.5 180V180.5M780.5 180.5V210M780.5 180.5H840.5M840.5 180V180.5M840.5 180.5V210M840.5 180.5H900.5M900.5 180V180.5M900.5 180.5V210M900.5 180.5H960.5M1200.5 180V180.5M1200.5 180.5V210M1200.5 180.5H1140.5M1200.5 180.5H1260.5M1260.5 180V180.5M1260.5 180.5V210M1260.5 180.5H1320.5M1320.5 180V180.5M1320.5 180.5V210M1320.5 180.5H1380.5M1380.5 180V180.5M1380.5 180.5V210M1380.5 180.5H1410M960.5 180V180.5M960.5 180.5V210M960.5 180.5H1020.5M1020.5 180V180.5M1020.5 180.5V210M1020.5 180.5H1080.5M1080.5 180V180.5M1080.5 180.5V210M1080.5 180.5H1140.5M1140.5 180V180.5M1140.5 180.5V210M749.5 210V210.5M749.5 210.5V240M749.5 210.5H809.5M809.5 210V210.5M809.5 210.5V240M809.5 210.5H869.5M869.5 210V210.5M869.5 210.5V240M869.5 210.5H929.5M929.5 210V210.5M929.5 210.5V240M929.5 210.5H989.5M1229.5 210V210.5M1229.5 210.5V240M1229.5 210.5H1169.5M1229.5 210.5H1289.5M1289.5 210V210.5M1289.5 210.5V240M1289.5 210.5H1349.5M1349.5 210V210.5M1349.5 210.5V240M1349.5 210.5H1409.5M1409.5 210.5V240M1409.5 210.5V181M989.5 210V210.5M989.5 210.5V240M989.5 210.5H1049.5M1049.5 210V210.5M1049.5 210.5V240M1049.5 210.5H1109.5M1109.5 210V210.5M1109.5 210.5V240M1109.5 210.5H1169.5M1169.5 210V210.5M1169.5 210.5V240M0.5 211L0.5 240.5M0.5 240.5L0.499999 270M0.5 240.5H0M0.5 240.5H60.5M60.5 240V240.5M60.5 240.5V270M60.5 240.5H120.5M120.5 240V240.5M120.5 240.5V270M120.5 240.5H180.5M180.5 240V240.5M180.5 240.5V270M180.5 240.5H240.5M480.5 240V240.5M480.5 240.5V270M480.5 240.5H420.5M480.5 240.5H540.5M540.5 240V240.5M540.5 240.5V270M540.5 240.5H600.5M600.5 240V240.5M600.5 240.5V270M600.5 240.5H660.5M660.5 240V240.5M660.5 240.5V270M660.5 240.5H720.5M240.5 240V240.5M240.5 240.5V270M240.5 240.5H300.5M300.5 240V240.5M300.5 240.5V270M300.5 240.5H360.5M360.5 240V240.5M360.5 240.5V270M360.5 240.5H420.5M420.5 240V240.5M420.5 240.5V270M29.5 270V270.5M29.5 270.5L29.5 300M29.5 270.5H0M29.5 270.5H89.5M89.5 270V270.5M89.5 270.5V300M89.5 270.5H149.5M149.5 270V270.5M149.5 270.5V300M149.5 270.5H209.5M209.5 270V270.5M209.5 270.5V300M209.5 270.5H269.5M509.5 270V270.5M509.5 270.5V300M509.5 270.5H449.5M509.5 270.5H569.5M569.5 270V270.5M569.5 270.5V300M569.5 270.5H629.5M629.5 270V270.5M629.5 270.5V300M629.5 270.5H689.5M689.5 270V270.5M689.5 270.5V300M689.5 270.5H749.5M269.5 270V270.5M269.5 270.5V300M269.5 270.5H329.5M329.5 270V270.5M329.5 270.5V300M329.5 270.5H389.5M389.5 270V270.5M389.5 270.5V300M389.5 270.5H449.5M449.5 270V270.5M449.5 270.5V300M720.5 240V240.5M720.5 240.5V270M720.5 240.5H780.5M780.5 240V240.5M780.5 240.5V270M780.5 240.5H840.5M840.5 240V240.5M840.5 240.5V270M840.5 240.5H900.5M900.5 240V240.5M900.5 240.5V270M900.5 240.5H960.5M1200.5 240V240.5M1200.5 240.5V270M1200.5 240.5H1140.5M1200.5 240.5H1260.5M1260.5 240V240.5M1260.5 240.5V270M1260.5 240.5H1320.5M1320.5 240V240.5M1320.5 240.5V270M1320.5 240.5H1380.5M1380.5 240V240.5M1380.5 240.5V270M1380.5 240.5H1410M960.5 240V240.5M960.5 240.5V270M960.5 240.5H1020.5M1020.5 240V240.5M1020.5 240.5V270M1020.5 240.5H1080.5M1080.5 240V240.5M1080.5 240.5V270M1080.5 240.5H1140.5M1140.5 240V240.5M1140.5 240.5V270M749.5 270V270.5M749.5 270.5V300M749.5 270.5H809.5M809.5 270V270.5M809.5 270.5V300M809.5 270.5H869.5M869.5 270V270.5M869.5 270.5V300M869.5 270.5H929.5M929.5 270V270.5M929.5 270.5V300M929.5 270.5H989.5M1229.5 270V270.5M1229.5 270.5V300M1229.5 270.5H1169.5M1229.5 270.5H1289.5M1289.5 270V270.5M1289.5 270.5V300M1289.5 270.5H1349.5M1349.5 270V270.5M1349.5 270.5V300M1349.5 270.5H1409.5M1409.5 270.5V300M1409.5 270.5V241M989.5 270V270.5M989.5 270.5V300M989.5 270.5H1049.5M1049.5 270V270.5M1049.5 270.5V300M1049.5 270.5H1109.5M1109.5 270V270.5M1109.5 270.5V300M1109.5 270.5H1169.5M1169.5 270V270.5M1169.5 270.5V300M0.5 271L0.5 300.5M0.5 300.5L0.499999 330M0.5 300.5H0M0.5 300.5H60.5M60.5 300V300.5M60.5 300.5V330M60.5 300.5H120.5M120.5 300V300.5M120.5 300.5V330M120.5 300.5H180.5M180.5 300V300.5M180.5 300.5V330M180.5 300.5H240.5M480.5 300V300.5M480.5 300.5V330M480.5 300.5H420.5M480.5 300.5H540.5M540.5 300V300.5M540.5 300.5V330M540.5 300.5H600.5M600.5 300V300.5M600.5 300.5V330M600.5 300.5H660.5M660.5 300V300.5M660.5 300.5V330M660.5 300.5H720.5M240.5 300V300.5M240.5 300.5V330M240.5 300.5H300.5M300.5 300V300.5M300.5 300.5V330M300.5 300.5H360.5M360.5 300V300.5M360.5 300.5V330M360.5 300.5H420.5M420.5 300V300.5M420.5 300.5V330M29.5 330V330.5M29.5 330.5L29.5 360M29.5 330.5H0M29.5 330.5H89.5M89.5 330V330.5M89.5 330.5V360M89.5 330.5H149.5M149.5 330V330.5M149.5 330.5V360M149.5 330.5H209.5M209.5 330V330.5M209.5 330.5V360M209.5 330.5H269.5M509.5 330V330.5M509.5 330.5V360M509.5 330.5H449.5M509.5 330.5H569.5M569.5 330V330.5M569.5 330.5V360M569.5 330.5H629.5M629.5 330V330.5M629.5 330.5V360M629.5 330.5H689.5M689.5 330V330.5M689.5 330.5V360M689.5 330.5H749.5M269.5 330V330.5M269.5 330.5V360M269.5 330.5H329.5M329.5 330V330.5M329.5 330.5V360M329.5 330.5H389.5M389.5 330V330.5M389.5 330.5V360M389.5 330.5H449.5M449.5 330V330.5M449.5 330.5V360M720.5 300V300.5M720.5 300.5V330M720.5 300.5H780.5M780.5 300V300.5M780.5 300.5V330M780.5 300.5H840.5M840.5 300V300.5M840.5 300.5V330M840.5 300.5H900.5M900.5 300V300.5M900.5 300.5V330M900.5 300.5H960.5M1200.5 300V300.5M1200.5 300.5V330M1200.5 300.5H1140.5M1200.5 300.5H1260.5M1260.5 300V300.5M1260.5 300.5V330M1260.5 300.5H1320.5M1320.5 300V300.5M1320.5 300.5V330M1320.5 300.5H1380.5M1380.5 300V300.5M1380.5 300.5V330M1380.5 300.5H1410M960.5 300V300.5M960.5 300.5V330M960.5 300.5H1020.5M1020.5 300V300.5M1020.5 300.5V330M1020.5 300.5H1080.5M1080.5 300V300.5M1080.5 300.5V330M1080.5 300.5H1140.5M1140.5 300V300.5M1140.5 300.5V330M749.5 330V330.5M749.5 330.5V360M749.5 330.5H809.5M809.5 330V330.5M809.5 330.5V360M809.5 330.5H869.5M869.5 330V330.5M869.5 330.5V360M869.5 330.5H929.5M929.5 330V330.5M929.5 330.5V360M929.5 330.5H989.5M1229.5 330V330.5M1229.5 330.5V360M1229.5 330.5H1169.5M1229.5 330.5H1289.5M1289.5 330V330.5M1289.5 330.5V360M1289.5 330.5H1349.5M1349.5 330V330.5M1349.5 330.5V360M1349.5 330.5H1409.5M1409.5 330.5V360M1409.5 330.5V301M989.5 330V330.5M989.5 330.5V360M989.5 330.5H1049.5M1049.5 330V330.5M1049.5 330.5V360M1049.5 330.5H1109.5M1109.5 330V330.5M1109.5 330.5V360M1109.5 330.5H1169.5M1169.5 330V330.5M1169.5 330.5V360M0.5 331L0.5 360.5M0.5 360.5L0.499999 390M0.5 360.5H0M0.5 360.5H60.5M60.5 360V360.5M60.5 360.5V390M60.5 360.5H120.5M120.5 360V360.5M120.5 360.5V390M120.5 360.5H180.5M180.5 360V360.5M180.5 360.5V390M180.5 360.5H240.5M480.5 360V360.5M480.5 360.5V390M480.5 360.5H420.5M480.5 360.5H540.5M540.5 360V360.5M540.5 360.5V390M540.5 360.5H600.5M600.5 360V360.5M600.5 360.5V390M600.5 360.5H660.5M660.5 360V360.5M660.5 360.5V390M660.5 360.5H720.5M240.5 360V360.5M240.5 360.5V390M240.5 360.5H300.5M300.5 360V360.5M300.5 360.5V390M300.5 360.5H360.5M360.5 360V360.5M360.5 360.5V390M360.5 360.5H420.5M420.5 360V360.5M420.5 360.5V390M29.5 390V390.5M29.5 390.5L29.5 420M29.5 390.5H0M29.5 390.5H89.5M89.5 390V390.5M89.5 390.5V420M89.5 390.5H149.5M149.5 390V390.5M149.5 390.5V420M149.5 390.5H209.5M209.5 390V390.5M209.5 390.5V420M209.5 390.5H269.5M509.5 390V390.5M509.5 390.5V420M509.5 390.5H449.5M509.5 390.5H569.5M569.5 390V390.5M569.5 390.5V420M569.5 390.5H629.5M629.5 390V390.5M629.5 390.5V420M629.5 390.5H689.5M689.5 390V390.5M689.5 390.5V420M689.5 390.5H749.5M269.5 390V390.5M269.5 390.5V420M269.5 390.5H329.5M329.5 390V390.5M329.5 390.5V420M329.5 390.5H389.5M389.5 390V390.5M389.5 390.5V420M389.5 390.5H449.5M449.5 390V390.5M449.5 390.5V420M720.5 360V360.5M720.5 360.5V390M720.5 360.5H780.5M780.5 360V360.5M780.5 360.5V390M780.5 360.5H840.5M840.5 360V360.5M840.5 360.5V390M840.5 360.5H900.5M900.5 360V360.5M900.5 360.5V390M900.5 360.5H960.5M1200.5 360V360.5M1200.5 360.5V390M1200.5 360.5H1140.5M1200.5 360.5H1260.5M1260.5 360V360.5M1260.5 360.5V390M1260.5 360.5H1320.5M1320.5 360V360.5M1320.5 360.5V390M1320.5 360.5H1380.5M1380.5 360V360.5M1380.5 360.5V390M1380.5 360.5H1410M960.5 360V360.5M960.5 360.5V390M960.5 360.5H1020.5M1020.5 360V360.5M1020.5 360.5V390M1020.5 360.5H1080.5M1080.5 360V360.5M1080.5 360.5V390M1080.5 360.5H1140.5M1140.5 360V360.5M1140.5 360.5V390M749.5 390V390.5M749.5 390.5V420M749.5 390.5H809.5M809.5 390V390.5M809.5 390.5V420M809.5 390.5H869.5M869.5 390V390.5M869.5 390.5V420M869.5 390.5H929.5M929.5 390V390.5M929.5 390.5V420M929.5 390.5H989.5M1229.5 390V390.5M1229.5 390.5V420M1229.5 390.5H1169.5M1229.5 390.5H1289.5M1289.5 390V390.5M1289.5 390.5V420M1289.5 390.5H1349.5M1349.5 390V390.5M1349.5 390.5V420M1349.5 390.5H1409.5M1409.5 390.5V420M1409.5 390.5V361M989.5 390V390.5M989.5 390.5V420M989.5 390.5H1049.5M1049.5 390V390.5M1049.5 390.5V420M1049.5 390.5H1109.5M1109.5 390V390.5M1109.5 390.5V420M1109.5 390.5H1169.5M1169.5 390V390.5M1169.5 390.5V420M0.5 391L0.5 420.5M0.5 420.5L0.499999 450M0.5 420.5H0M0.5 420.5H60.5M60.5 420V420.5M60.5 420.5V450M60.5 420.5H120.5M120.5 420V420.5M120.5 420.5V450M120.5 420.5H180.5M180.5 420V420.5M180.5 420.5V450M180.5 420.5H240.5M480.5 420V420.5M480.5 420.5V450M480.5 420.5H420.5M480.5 420.5H540.5M540.5 420V420.5M540.5 420.5V450M540.5 420.5H600.5M600.5 420V420.5M600.5 420.5V450M600.5 420.5H660.5M660.5 420V420.5M660.5 420.5V450M660.5 420.5H720.5M240.5 420V420.5M240.5 420.5V450M240.5 420.5H300.5M300.5 420V420.5M300.5 420.5V450M300.5 420.5H360.5M360.5 420V420.5M360.5 420.5V450M360.5 420.5H420.5M420.5 420V420.5M420.5 420.5V450M29.5 450V450.5M29.5 450.5L29.5 480M29.5 450.5H0M29.5 450.5H89.5M89.5 450V450.5M89.5 450.5V480M89.5 450.5H149.5M149.5 450V450.5M149.5 450.5V480M149.5 450.5H209.5M209.5 450V450.5M209.5 450.5V480M209.5 450.5H269.5M509.5 450V450.5M509.5 450.5V480M509.5 450.5H449.5M509.5 450.5H569.5M569.5 450V450.5M569.5 450.5V480M569.5 450.5H629.5M629.5 450V450.5M629.5 450.5V480M629.5 450.5H689.5M689.5 450V450.5M689.5 450.5V480M689.5 450.5H749.5M269.5 450V450.5M269.5 450.5V480M269.5 450.5H329.5M329.5 450V450.5M329.5 450.5V480M329.5 450.5H389.5M389.5 450V450.5M389.5 450.5V480M389.5 450.5H449.5M449.5 450V450.5M449.5 450.5V480M720.5 420V420.5M720.5 420.5V450M720.5 420.5H780.5M780.5 420V420.5M780.5 420.5V450M780.5 420.5H840.5M840.5 420V420.5M840.5 420.5V450M840.5 420.5H900.5M900.5 420V420.5M900.5 420.5V450M900.5 420.5H960.5M1200.5 420V420.5M1200.5 420.5V450M1200.5 420.5H1140.5M1200.5 420.5H1260.5M1260.5 420V420.5M1260.5 420.5V450M1260.5 420.5H1320.5M1320.5 420V420.5M1320.5 420.5V450M1320.5 420.5H1380.5M1380.5 420V420.5M1380.5 420.5V450M1380.5 420.5H1410M960.5 420V420.5M960.5 420.5V450M960.5 420.5H1020.5M1020.5 420V420.5M1020.5 420.5V450M1020.5 420.5H1080.5M1080.5 420V420.5M1080.5 420.5V450M1080.5 420.5H1140.5M1140.5 420V420.5M1140.5 420.5V450M749.5 450V450.5M749.5 450.5V480M749.5 450.5H809.5M809.5 450V450.5M809.5 450.5V480M809.5 450.5H869.5M869.5 450V450.5M869.5 450.5V480M869.5 450.5H929.5M929.5 450V450.5M929.5 450.5V480M929.5 450.5H989.5M1229.5 450V450.5M1229.5 450.5V480M1229.5 450.5H1169.5M1229.5 450.5H1289.5M1289.5 450V450.5M1289.5 450.5V480M1289.5 450.5H1349.5M1349.5 450V450.5M1349.5 450.5V480M1349.5 450.5H1409.5M1409.5 450.5V480M1409.5 450.5V421M989.5 450V450.5M989.5 450.5V480M989.5 450.5H1049.5M1049.5 450V450.5M1049.5 450.5V480M1049.5 450.5H1109.5M1109.5 450V450.5M1109.5 450.5V480M1109.5 450.5H1169.5M1169.5 450V450.5M1169.5 450.5V480M0.5 451V480M1 479.5H1410" stroke="black"/>
</svg>
