<?xml version="1.0" encoding="UTF-8" standalone="no"?>
<!DOCTYPE svg PUBLIC "-//W3C//DTD SVG 1.1//EN" "http://www.w3.org/Graphics/SVG/1.1/DTD/svg11.dtd">
<!-- Created with Vectornator (http://vectornator.io/) -->
<svg height="100%" stroke-miterlimit="10" style="fill-rule:nonzero;clip-rule:evenodd;stroke-linecap:round;stroke-linejoin:round;" version="1.1" viewBox="0 0 813.628 350.103" width="100%" xml:space="preserve" xmlns="http://www.w3.org/2000/svg" xmlns:vectornator="http://vectornator.io" xmlns:xlink="http://www.w3.org/1999/xlink">
<defs>
<linearGradient gradientTransform="matrix(-243.724 -176.837 176.837 -243.724 665.368 182.792)" gradientUnits="userSpaceOnUse" id="LinearGradient" x1="0" x2="1" y1="0" y2="0">
<stop offset="0" stop-color="#f3f3f3"/>
<stop offset="0.268932" stop-color="#ff47ea"/>
<stop offset="0.989535" stop-color="#8b5cf6"/>
</linearGradient>
<filter color-interpolation-filters="sRGB" filterUnits="userSpaceOnUse" height="112.038" id="Filter" width="111.596" x="424.513" y="-6.85493">
<feDropShadow dx="4.9782" dy="4.9782" flood-color="#000000" flood-opacity="0.333" in="SourceGraphic" result="Shadow" stdDeviation="8.8003"/>
</filter>
<linearGradient gradientTransform="matrix(-243.724 -176.837 176.837 -243.724 665.368 182.792)" gradientUnits="userSpaceOnUse" id="LinearGradient_2" x1="0" x2="1" y1="0" y2="0">
<stop offset="0" stop-color="#f3f3f3"/>
<stop offset="0.268932" stop-color="#ff47ea"/>
<stop offset="0.989535" stop-color="#8b5cf6"/>
</linearGradient>
<filter color-interpolation-filters="sRGB" filterUnits="userSpaceOnUse" height="112.038" id="Filter_2" width="111.596" x="424.513" y="-6.85493">
<feDropShadow dx="4.9782" dy="4.9782" flood-color="#000000" flood-opacity="0.333" in="SourceGraphic" result="Shadow" stdDeviation="8.8003"/>
</filter>
</defs>
<clipPath id="ArtboardFrame">
<rect height="350.103" width="813.628" x="0" y="0"/>
</clipPath>
<g clip-path="url(#ArtboardFrame)" id="Work_dark" vectornator:layerName="Work_dark" visibility="hidden">
<path d="M808.573 4.45231L808.573 328.703L756.16 328.703L747.276 309.603C740.466 316.71 731.064 322.559 719.071 327.149C707.078 331.738 694.567 334.033 681.538 334.033C665.844 334.033 651.334 330.998 638.008 324.928C624.683 318.857 613.208 310.566 603.584 300.054C593.96 289.541 586.409 277.252 580.931 263.187C575.453 249.121 572.714 234.093 572.714 218.103C572.714 202.112 575.453 187.084 580.931 173.018C586.409 158.953 593.96 146.664 603.584 136.151C613.208 125.639 624.683 117.348 638.008 111.277C651.334 105.207 665.844 102.172 681.538 102.172C695.455 102.172 707.818 103.8 718.627 107.058C729.435 110.315 738.985 115.793 747.276 123.492L747.276 4.45231L808.573 4.45231ZM747.276 218.991C747.276 207.442 745.796 197.744 742.835 189.897C739.873 182.05 735.728 175.683 730.398 170.797C725.067 165.911 718.923 162.358 711.964 160.137C705.005 157.916 697.528 156.806 689.533 156.806C681.538 156.806 674.061 158.434 667.102 161.692C660.143 164.949 654.073 169.317 648.891 174.795C643.709 180.273 639.637 186.788 636.676 194.339C633.715 201.89 632.234 209.811 632.234 218.103C632.234 226.69 633.715 234.685 636.676 242.088C639.637 249.491 643.709 255.932 648.891 261.41C654.073 266.888 660.143 271.256 667.102 274.513C674.061 277.771 681.538 279.399 689.533 279.399C705.524 279.399 719.071 274.439 730.175 264.519C741.28 254.599 746.98 239.423 747.276 218.991Z" fill="#f6f6f6" opacity="1" stroke="none" vectornator:layerName="Text 5"/>
<g fill="#f6f6f6" opacity="1" stroke="none" vectornator:layerName="Text 7">
<path d="M201.204 156.75C213.641 165.337 223.561 176.368 230.964 189.841C238.367 203.315 242.069 218.195 242.069 234.481C242.069 247.51 239.552 259.725 234.517 271.126C229.483 282.527 222.673 292.447 214.085 300.886C205.498 309.325 195.504 315.988 184.103 320.874C172.703 325.76 160.488 328.203 147.458 328.203L4.4326 328.203L4.4326 13.2798L143.017 13.2798C154.861 13.2798 165.966 15.5748 176.33 20.1646C186.694 24.7545 195.8 30.899 203.647 38.5981C211.494 46.2972 217.639 55.3288 222.08 65.693C226.522 76.0572 228.743 87.1617 228.743 99.0064C228.743 111.74 226.3 122.918 221.414 132.542C216.528 142.166 209.791 150.235 201.204 156.75ZM71.9479 131.432L143.017 131.432C151.012 131.432 157.823 128.618 163.449 122.992C169.075 117.366 171.888 110.555 171.888 102.56C171.888 94.5647 169.075 87.902 163.449 82.5718C157.823 77.2417 151.012 74.5766 143.017 74.5766L71.9479 74.5766L71.9479 131.432ZM147.458 267.35C156.342 267.35 163.893 263.575 170.111 256.024C176.33 248.473 179.439 239.663 179.439 229.595C179.439 219.231 176.33 210.495 170.111 203.389C163.893 196.282 156.342 192.728 147.458 192.728L71.9479 192.728L71.9479 267.35L147.458 267.35Z"/>
<path d="M377.543 107.89L438.84 107.89L438.84 328.203L386.427 328.203L377.543 311.324C370.436 316.358 362.367 320.43 353.335 323.539C344.304 326.648 334.606 328.203 324.242 328.203C316.246 328.203 307.141 327.018 296.925 324.65C286.709 322.281 277.159 317.839 268.275 311.324C259.392 304.81 251.914 295.778 245.844 284.229C239.774 272.681 236.738 257.727 236.738 239.367L236.738 107.89L298.479 107.89L298.479 237.146C298.479 243.957 299.59 249.731 301.811 254.469C304.032 259.207 306.993 262.983 310.694 265.796C314.396 268.609 318.615 270.682 323.353 272.014C328.091 273.347 332.977 274.013 338.011 274.013C341.861 274.013 346.08 273.347 350.67 272.014C355.26 270.682 359.554 268.535 363.552 265.574C367.549 262.612 370.881 258.763 373.546 254.025C376.211 249.287 377.543 243.661 377.543 237.146L377.543 107.89Z"/>
<path d="M505.911 328.203L444.614 328.203L444.614 107.89L505.911 107.89L505.911 328.203ZM475.263 77.6858C465.787 77.6858 457.792 74.4285 451.277 67.9139C444.762 61.3993 441.505 53.404 441.505 43.9282C441.505 34.4524 444.762 26.3831 451.277 19.7204C457.792 13.0578 465.787 9.72641 475.263 9.72641C484.738 9.72641 492.734 13.0578 499.248 19.7204C505.763 26.3831 509.02 34.4524 509.02 43.9282C509.02 53.404 505.763 61.3993 499.248 67.9139C492.734 74.4285 484.738 77.6858 475.263 77.6858Z"/>
<path d="M513.462 3.5079L574.759 3.5079L574.759 328.203L513.462 328.203L513.462 3.5079Z"/>
</g>
<path d="M475.318 10.1676C465.831 10.1676 457.835 13.5116 451.313 20.1816C444.792 26.8516 441.535 34.935 441.535 44.4213C441.535 53.9075 444.792 61.9035 451.313 68.4253C457.835 74.9471 465.831 78.2037 475.318 78.2037C484.804 78.2037 492.829 74.9471 499.351 68.4253C505.873 61.9035 509.129 53.9075 509.129 44.4213C509.129 34.935 505.873 26.8516 499.351 20.1816C492.829 13.5116 484.804 10.1676 475.318 10.1676Z" fill="url(#LinearGradient)" fill-rule="nonzero" filter="url(#Filter)" stroke="none" vectornator:layerName="Curve 1" vectornator:shadowAngle="0.785398" vectornator:shadowColor="#000000" vectornator:shadowOffset="7.04024" vectornator:shadowOpacity="0.333" vectornator:shadowRadius="17.6006"/>
</g>
<g clip-path="url(#ArtboardFrame)" id="Work" vectornator:layerName="Work">
<path d="M808.573 4.45231L808.573 328.703L756.16 328.703L747.276 309.603C740.466 316.71 731.064 322.559 719.071 327.149C707.078 331.738 694.567 334.033 681.538 334.033C665.844 334.033 651.334 330.998 638.008 324.928C624.683 318.857 613.208 310.566 603.584 300.054C593.96 289.541 586.409 277.252 580.931 263.187C575.453 249.121 572.714 234.093 572.714 218.103C572.714 202.112 575.453 187.084 580.931 173.018C586.409 158.953 593.96 146.664 603.584 136.151C613.208 125.639 624.683 117.348 638.008 111.277C651.334 105.207 665.844 102.172 681.538 102.172C695.455 102.172 707.818 103.8 718.627 107.058C729.435 110.315 738.985 115.793 747.276 123.492L747.276 4.45231L808.573 4.45231ZM747.276 218.991C747.276 207.442 745.796 197.744 742.835 189.897C739.873 182.05 735.728 175.683 730.398 170.797C725.067 165.911 718.923 162.358 711.964 160.137C705.005 157.916 697.528 156.806 689.533 156.806C681.538 156.806 674.061 158.434 667.102 161.692C660.143 164.949 654.073 169.317 648.891 174.795C643.709 180.273 639.637 186.788 636.676 194.339C633.715 201.89 632.234 209.811 632.234 218.103C632.234 226.69 633.715 234.685 636.676 242.088C639.637 249.491 643.709 255.932 648.891 261.41C654.073 266.888 660.143 271.256 667.102 274.513C674.061 277.771 681.538 279.399 689.533 279.399C705.524 279.399 719.071 274.439 730.175 264.519C741.28 254.599 746.98 239.423 747.276 218.991Z" fill="#303030" opacity="1" stroke="none" vectornator:layerName="Text 5"/>
<g fill="#303030" opacity="1" stroke="none" vectornator:layerName="Text 7">
<path d="M201.204 156.75C213.641 165.337 223.561 176.368 230.964 189.841C238.367 203.315 242.069 218.195 242.069 234.481C242.069 247.51 239.552 259.725 234.517 271.126C229.483 282.527 222.673 292.447 214.085 300.886C205.498 309.325 195.504 315.988 184.103 320.874C172.703 325.76 160.488 328.203 147.458 328.203L4.4326 328.203L4.4326 13.2798L143.017 13.2798C154.861 13.2798 165.966 15.5748 176.33 20.1646C186.694 24.7545 195.8 30.899 203.647 38.5981C211.494 46.2972 217.639 55.3288 222.08 65.693C226.522 76.0572 228.743 87.1617 228.743 99.0064C228.743 111.74 226.3 122.918 221.414 132.542C216.528 142.166 209.791 150.235 201.204 156.75ZM71.9479 131.432L143.017 131.432C151.012 131.432 157.823 128.618 163.449 122.992C169.075 117.366 171.888 110.555 171.888 102.56C171.888 94.5647 169.075 87.902 163.449 82.5718C157.823 77.2417 151.012 74.5766 143.017 74.5766L71.9479 74.5766L71.9479 131.432ZM147.458 267.35C156.342 267.35 163.893 263.575 170.111 256.024C176.33 248.473 179.439 239.663 179.439 229.595C179.439 219.231 176.33 210.495 170.111 203.389C163.893 196.282 156.342 192.728 147.458 192.728L71.9479 192.728L71.9479 267.35L147.458 267.35Z"/>
<path d="M377.543 107.89L438.84 107.89L438.84 328.203L386.427 328.203L377.543 311.324C370.436 316.358 362.367 320.43 353.335 323.539C344.304 326.648 334.606 328.203 324.242 328.203C316.246 328.203 307.141 327.018 296.925 324.65C286.709 322.281 277.159 317.839 268.275 311.324C259.392 304.81 251.914 295.778 245.844 284.229C239.774 272.681 236.738 257.727 236.738 239.367L236.738 107.89L298.479 107.89L298.479 237.146C298.479 243.957 299.59 249.731 301.811 254.469C304.032 259.207 306.993 262.983 310.694 265.796C314.396 268.609 318.615 270.682 323.353 272.014C328.091 273.347 332.977 274.013 338.011 274.013C341.861 274.013 346.08 273.347 350.67 272.014C355.26 270.682 359.554 268.535 363.552 265.574C367.549 262.612 370.881 258.763 373.546 254.025C376.211 249.287 377.543 243.661 377.543 237.146L377.543 107.89Z"/>
<path d="M505.911 328.203L444.614 328.203L444.614 107.89L505.911 107.89L505.911 328.203ZM475.263 77.6858C465.787 77.6858 457.792 74.4285 451.277 67.9139C444.762 61.3993 441.505 53.404 441.505 43.9282C441.505 34.4524 444.762 26.3831 451.277 19.7204C457.792 13.0578 465.787 9.72641 475.263 9.72641C484.738 9.72641 492.734 13.0578 499.248 19.7204C505.763 26.3831 509.02 34.4524 509.02 43.9282C509.02 53.404 505.763 61.3993 499.248 67.9139C492.734 74.4285 484.738 77.6858 475.263 77.6858Z"/>
<path d="M513.462 3.5079L574.759 3.5079L574.759 328.203L513.462 328.203L513.462 3.5079Z"/>
</g>
<path d="M475.318 10.1676C465.831 10.1676 457.835 13.5116 451.313 20.1816C444.792 26.8516 441.535 34.935 441.535 44.4213C441.535 53.9075 444.792 61.9035 451.313 68.4253C457.835 74.9471 465.831 78.2037 475.318 78.2037C484.804 78.2037 492.829 74.9471 499.351 68.4253C505.873 61.9035 509.129 53.9075 509.129 44.4213C509.129 34.935 505.873 26.8516 499.351 20.1816C492.829 13.5116 484.804 10.1676 475.318 10.1676Z" fill="url(#LinearGradient_2)" fill-rule="nonzero" filter="url(#Filter_2)" stroke="none" vectornator:layerName="Curve 1" vectornator:shadowAngle="0.785398" vectornator:shadowColor="#000000" vectornator:shadowOffset="7.04024" vectornator:shadowOpacity="0.333" vectornator:shadowRadius="17.6006"/>
</g>
</svg>
